<?xml version="1.0" encoding="utf-8"?>
<!-- Generator: Adobe Illustrator 26.3.1, SVG Export Plug-In . SVG Version: 6.00 Build 0)  -->
<svg version="1.1" id="Warstwa_1" xmlns="http://www.w3.org/2000/svg" xmlns:xlink="http://www.w3.org/1999/xlink" x="0px" y="0px"
	 viewBox="120 439 960 247" style="enable-background:new 120 439 960 247;" xml:space="preserve">
<style type="text/css">
	.st0{fill:#FFFFFF;}
</style>
<g>
	<polygon class="st0" points="174.77,461.19 139.92,461.19 139.92,608.32 238.69,608.32 238.69,575.89 174.77,575.89 	"/>
	<path class="st0" d="M288.4,601.34c4.5,2.27,9.63,4.02,15.21,5.21c5.61,1.17,11.71,1.77,18.11,1.77c12.92,0,24.17-2.35,33.45-7
		c9-4.5,15.67-10.79,20.4-19.25c4.79-8.61,7.23-19.15,7.23-31.32v-90.42h-34.2v87.56c0,19.17-10.04,30.61-26.88,30.61
		c-16.84,0-26.88-11.44-26.88-30.61v-87.56h-33.97v90.42c0,12.17,2.44,22.71,7.23,31.32C272.83,590.55,279.48,596.86,288.4,601.34z"
		/>
	<polygon class="st0" points="499.85,535.06 449,461.19 418.83,461.19 418.83,608.32 452.42,608.32 452.42,574.49 451.94,523.89
		488.84,571.95 510.88,571.95 547.79,522.2 547.27,574.57 547.27,608.32 580.86,608.32 580.86,461.19 550.91,461.19 	"/>
	<rect x="619.14" y="459.19" class="st0" width="309.98" height="32.83"/>
	<rect x="258.87" y="633.84" class="st0" width="321.99" height="32.03"/>
	<polygon class="st0" points="653.99,518.73 619.14,518.73 619.14,665.87 717.91,665.87 717.91,633.44 653.99,633.44 	"/>
	<path class="st0" d="M829.82,605.43c0,19.17-10.04,30.61-26.88,30.61c-16.84,0-26.88-11.44-26.88-30.61v-87.56h-33.97v90.42
		c0,12.17,2.44,22.71,7.23,31.32c4.73,8.48,11.38,14.8,20.3,19.28c4.5,2.27,9.63,4.02,15.21,5.21c5.61,1.17,11.71,1.77,18.11,1.77
		c12.92,0,24.17-2.35,33.45-7c9-4.5,15.67-10.79,20.4-19.25c4.79-8.61,7.23-19.15,7.23-31.32v-90.42h-34.2V605.43z"/>
	<polygon class="st0" points="1030.13,518.73 979.07,592.6 928.22,518.73 898.05,518.73 898.05,665.87 931.64,665.87 931.64,632.04
		931.16,581.43 968.06,629.49 990.1,629.49 1027.01,579.75 1026.49,632.12 1026.49,665.87 1060.08,665.87 1060.08,518.73 	"/>
</g>
</svg>
