<svg xmlns='http://www.w3.org/2000/svg' viewBox='0 0 512 512'>
<rect width='512' height='512' fill='#000'/>
<svg x='77' y='172.5' width='358' height='167' viewBox='139.9 460.3 440.9 205.5'>
<g fill='#fff'><polygon  points="174.77,461.19 139.92,461.19 139.92,608.32 238.69,608.32 238.69,575.89 174.77,575.89 	"/><path  d="M288.4,601.34c4.5,2.27,9.63,4.02,15.21,5.21c5.61,1.17,11.71,1.77,18.11,1.77c12.92,0,24.17-2.35,33.45-7
		c9-4.5,15.67-10.79,20.4-19.25c4.79-8.61,7.23-19.15,7.23-31.32v-90.42h-34.2v87.56c0,19.17-10.04,30.61-26.88,30.61
		c-16.84,0-26.88-11.44-26.88-30.61v-87.56h-33.97v90.42c0,12.17,2.44,22.71,7.23,31.32C272.83,590.55,279.48,596.86,288.4,601.34z"
		/><polygon  points="499.85,535.06 449,461.19 418.83,461.19 418.83,608.32 452.42,608.32 452.42,574.49 451.94,523.89
		488.84,571.95 510.88,571.95 547.79,522.2 547.27,574.57 547.27,608.32 580.86,608.32 580.86,461.19 550.91,461.19 	"/><rect x='139.9' y='633.8' width='440.9' height='32'/></g>
</svg></svg>